Coordinates
version=1
nRows=5
nColumns=60
inDegrees=yes

Units are S.I. units (second, meters, Newtons, ...)
If the header above contains a line with 'inDegrees', this indicates whether rotational values are in degrees (yes) or radians (no).

endheader
time	pelvis_tilt	pelvis_list	pelvis_rotation	pelvis_tx	pelvis_ty	pelvis_tz	hip_flexion_r	hip_adduction_r	hip_rotation_r	knee_angle_r_beta	knee_angle_r	ankle_angle_r	subtalar_angle_r	mtp_angle_r	hip_flexion_l	hip_adduction_l	hip_rotation_l	knee_angle_l_beta	knee_angle_l	ankle_angle_l	subtalar_angle_l	mtp_angle_l	L5_S1_Flex_Ext	L5_S1_Lat_Bending	L5_S1_axial_rotation	L4_L5_Flex_Ext	L4_L5_Lat_Bending	L4_L5_axial_rotation	L3_L4_Flex_Ext	L3_L4_Lat_Bending	L3_L4_axial_rotation	L2_L3_Flex_Ext	L2_L3_Lat_Bending	L2_L3_axial_rotation	L1_L2_Flex_Ext	L1_L2_Lat_Bending	L1_L2_axial_rotation	L1_T12_Flex_Ext	L1_T12_Lat_Bending	L1_T12_axial_rotation	Abs_r3	Abs_r2	Abs_r1	Abs_t1	Abs_t2	arm_flex_r	arm_add_r	arm_rot_r	elbow_flex_r	pro_sup_r	wrist_flex_r	wrist_dev_r	arm_flex_l	arm_add_l	arm_rot_l	elbow_flex_l	pro_sup_l	wrist_flex_l	wrist_dev_l
     92.71000000	      0.14551053	      6.73502350	     92.88892464	      0.39808217	      0.93925812	      0.30557683	      4.96556188	     -5.10277148	     -0.44184882	      0.28088696	    -16.09363757	      6.38316433	      0.00000000	      0.00000000	      5.20007188	     -5.35157079	     -1.29731605	      0.23896735	    -13.69182044	      6.21774629	      0.00000000	      0.00000000	     -6.44186782	      0.03808323	     -0.17070492	    -11.96319272	      0.05065070	     -0.18137398	    -10.58334464	      0.09259557	     -0.18137398	     -7.36241073	      0.09259557	     -0.14936680	     -5.98191845	      0.07765933	     -0.13869775	     -3.68088327	      0.05899093	     -0.12802869	    -46.01361762	      0.43080513	     -0.94940955	      0.00000000	      0.00000000	     50.91966635	    -30.32464721	     13.58731385	     78.67696446	     66.02021026	      6.97584455	     20.42629389	     54.22351758	    -23.51033762	     16.41844651	     72.67216823	     63.36363939	      4.69303423	     19.88317589
     92.72000000	      0.12513622	      7.14510109	     92.76427760	      0.39794231	      0.93976816	      0.30373694	      4.35017764	     -5.11877233	     -0.46280596	      0.27848477	    -15.95600172	      6.55835770	      0.00000000	      0.00000000	      4.59286698	     -5.34657007	     -1.51730222	      0.23905629	    -13.69691634	      6.50990482	      0.00000000	      0.00000000	     -6.44099046	      0.02923599	     -0.17357903	    -11.96156339	      0.03888386	     -0.18442772	    -10.58190323	      0.07108438	     -0.18442772	     -7.36140800	      0.07108438	     -0.15188165	     -5.98110375	      0.05961802	     -0.14103296	     -3.68038195	      0.04528654	     -0.13018427	    -46.00735079	      0.33072333	     -0.96539449	      0.00000000	      0.00000000	     48.91242669	    -30.19415871	     12.65302141	     80.25193227	     66.35946315	      6.72206329	     20.48709170	     52.05043780	    -23.74958547	     15.26652640	     74.56083278	     63.72065741	      4.45615861	     19.91014024
     92.73000000	      0.12727981	      7.54081747	     92.64317475	      0.39781793	      0.94028604	      0.30195390	      3.73577063	     -5.11755064	     -0.50010252	      0.27581814	    -15.80321562	      6.65632962	      0.00000000	      0.00000000	      4.00992854	     -5.36980931	     -1.71221123	      0.23889780	    -13.68783545	      6.71535907	      0.00000000	      0.00000000	     -6.44116229	      0.02296076	     -0.17449147	    -11.96188249	      0.03053782	     -0.18539719	    -10.58218552	      0.05582680	     -0.18539719	     -7.36160438	      0.05582680	     -0.15268004	     -5.98126330	      0.04682159	     -0.14177432	     -3.68048013	      0.03556622	     -0.13086860	    -46.00857811	      0.25973675	     -0.97046921	      0.00000000	      0.00000000	     46.97954674	    -30.03034376	     11.66701767	     81.71681269	     66.77521025	      6.45403910	     20.56830817	     49.83404504	    -23.92522721	     14.02378887	     76.39670591	     64.16707472	      4.17547687	     19.96564274
     92.74000000	      0.15791626	      7.92696608	     92.52132650	      0.39768476	      0.94078465	      0.30021083	      3.11648547	     -5.08842799	     -0.56651875	      0.27228917	    -15.60102027	      6.76111695	      0.00000000	      0.00000000	      3.42730302	     -5.41507957	     -1.91373964	      0.23834789	    -13.65632815	      6.95897184	      0.00000000	      0.00000000	     -6.43832364	      0.02049649	     -0.17238463	    -11.95661083	      0.02726033	     -0.18315867	    -10.57752191	      0.04983517	     -0.18315867	     -7.35836009	      0.04983517	     -0.15083655	     -5.97862733	      0.04179645	     -0.14006251	     -3.67885813	      0.03174907	     -0.12928847	    -45.98830193	      0.23186041	     -0.95875159	      0.00000000	      0.00000000	     45.10916390	    -29.86550064	     10.80630287	     82.98183608	     67.19913579	      6.21076248	     20.65788401	     47.69329742	    -24.07711548	     12.91048844	     78.08285633	     64.62997611	      3.90110286	     20.03998716
     92.75000000	      0.21248559	      8.38733946	     92.41679024	      0.39754318	      0.94138918	      0.29859386	      2.43600544	     -5.02938880	     -0.60029020	      0.26945775	    -15.43879158	      6.71030713	      0.00000000	      0.00000000	      2.79020429	     -5.48919949	     -2.01086379	      0.23834548	    -13.65618980	      7.04448937	      0.00000000	      0.00000000	     -6.45177605	      0.01881215	     -0.18898966	    -11.98159331	      0.02502016	     -0.20080152	    -10.59962288	      0.04573985	     -0.20080152	     -7.37373485	      0.04573985	     -0.16536595	     -5.99111924	      0.03836173	     -0.15355410	     -3.68654484	      0.02914002	     -0.14174225	    -46.08439116	      0.21280677	     -1.05110380	      0.00000000	      0.00000000	     43.46078571	    -29.58671621	     10.12897436	     84.07882509	     68.52200890	      5.58144701	     21.13900554	     45.53031392	    -24.19786326	     11.62570176	     79.81557292	     66.00170631	      3.16838624	     20.55325023
